<?xml version="1.0" encoding="utf-8" standalone="no"?>
<!DOCTYPE svg PUBLIC "-//W3C//DTD SVG 1.1//EN"
  "http://www.w3.org/Graphics/SVG/1.1/DTD/svg11.dtd">
<svg xmlns:xlink="http://www.w3.org/1999/xlink" width="780.802812pt" height="345.927378pt" viewBox="0 0 780.802812 345.927378" xmlns="http://www.w3.org/2000/svg" version="1.1">
 <metadata>
  <rdf:RDF xmlns:dc="http://purl.org/dc/elements/1.1/" xmlns:cc="http://creativecommons.org/ns#" xmlns:rdf="http://www.w3.org/1999/02/22-rdf-syntax-ns#">
   <cc:Work>
    <dc:type rdf:resource="http://purl.org/dc/dcmitype/StillImage"/>
    <dc:date>2026-10-01T19:46:39.936053</dc:date>
    <dc:format>image/svg+xml</dc:format>
    <dc:creator>
     <cc:Agent>
      <dc:title>Matplotlib v3.11.2, https://matplotlib.org/</dc:title>
     </cc:Agent>
    </dc:creator>
   </cc:Work>
  </rdf:RDF>
 </metadata>
 <defs>
  <style type="text/css">*{stroke-linejoin: round; stroke-linecap: butt}</style>
 </defs>
 <g id="figure_1">
  <g id="patch_1">
   <path d="M 0 345.927378
L 780.802812 345.927378
L 780.802812 0
L 0 0
z
" style="fill: #ffffff"/>
  </g>
  <g id="axes_1">
   <g id="patch_2">
    <path d="M 214.457812 272.995137
L 773.602813 272.995137
L 773.602813 22.318125
L 214.457812 22.318125
z
" style="fill: #ffffff"/>
   </g>
   <g id="PathCollection_1">
    <defs>
     <path id="m4f759e2ba3" d="M 0 2.345208
C 0.621956 2.345208 1.218523 2.098102 1.658312 1.658312
C 2.098102 1.218523 2.345208 0.621956 2.345208 0
C 2.345208 -0.621956 2.098102 -1.218523 1.658312 -1.658312
C 1.218523 -2.098102 0.621956 -2.345208 0 -2.345208
C -0.621956 -2.345208 -1.218523 -2.098102 -1.658312 -1.658312
C -2.098102 -1.218523 -2.345208 -0.621956 -2.345208 0
C -2.345208 0.621956 -2.098102 1.218523 -1.658312 1.658312
C -1.218523 2.098102 -0.621956 2.345208 0 2.345208
z
" style="stroke: #267f8f; stroke-opacity: 0.55"/>
    </defs>
    <g clip-path="url(#p27cae2c26a)">
     <use xlink:href="#m4f759e2ba3" x="251.354163" y="247.804039" style="fill: #267f8f; fill-opacity: 0.55; stroke: #267f8f; stroke-opacity: 0.55"/>
     <use xlink:href="#m4f759e2ba3" x="502.317774" y="254.313979" style="fill: #267f8f; fill-opacity: 0.55; stroke: #267f8f; stroke-opacity: 0.55"/>
     <use xlink:href="#m4f759e2ba3" x="518.3058" y="246.159603" style="fill: #267f8f; fill-opacity: 0.55; stroke: #267f8f; stroke-opacity: 0.55"/>
     <use xlink:href="#m4f759e2ba3" x="529.220291" y="249.292003" style="fill: #267f8f; fill-opacity: 0.55; stroke: #267f8f; stroke-opacity: 0.55"/>
     <use xlink:href="#m4f759e2ba3" x="522.893683" y="261.010886" style="fill: #267f8f; fill-opacity: 0.55; stroke: #267f8f; stroke-opacity: 0.55"/>
     <use xlink:href="#m4f759e2ba3" x="492.955697" y="243.886034" style="fill: #267f8f; fill-opacity: 0.55; stroke: #267f8f; stroke-opacity: 0.55"/>
     <use xlink:href="#m4f759e2ba3" x="509.242393" y="248.053037" style="fill: #267f8f; fill-opacity: 0.55; stroke: #267f8f; stroke-opacity: 0.55"/>
     <use xlink:href="#m4f759e2ba3" x="494.679948" y="247.568798" style="fill: #267f8f; fill-opacity: 0.55; stroke: #267f8f; stroke-opacity: 0.55"/>
     <use xlink:href="#m4f759e2ba3" x="390.916652" y="260.351567" style="fill: #267f8f; fill-opacity: 0.55; stroke: #267f8f; stroke-opacity: 0.55"/>
     <use xlink:href="#m4f759e2ba3" x="528.81054" y="254.09041" style="fill: #267f8f; fill-opacity: 0.55; stroke: #267f8f; stroke-opacity: 0.55"/>
     <use xlink:href="#m4f759e2ba3" x="559.097368" y="255.636656" style="fill: #267f8f; fill-opacity: 0.55; stroke: #267f8f; stroke-opacity: 0.55"/>
     <use xlink:href="#m4f759e2ba3" x="399.881054" y="244.835243" style="fill: #267f8f; fill-opacity: 0.55; stroke: #267f8f; stroke-opacity: 0.55"/>
     <use xlink:href="#m4f759e2ba3" x="406.150466" y="250.331466" style="fill: #267f8f; fill-opacity: 0.55; stroke: #267f8f; stroke-opacity: 0.55"/>
     <use xlink:href="#m4f759e2ba3" x="295.378991" y="246.855837" style="fill: #267f8f; fill-opacity: 0.55; stroke: #267f8f; stroke-opacity: 0.55"/>
     <use xlink:href="#m4f759e2ba3" x="324.138848" y="254.225858" style="fill: #267f8f; fill-opacity: 0.55; stroke: #267f8f; stroke-opacity: 0.55"/>
     <use xlink:href="#m4f759e2ba3" x="518.079512" y="258.425749" style="fill: #267f8f; fill-opacity: 0.55; stroke: #267f8f; stroke-opacity: 0.55"/>
     <use xlink:href="#m4f759e2ba3" x="239.873494" y="252.066018" style="fill: #267f8f; fill-opacity: 0.55; stroke: #267f8f; stroke-opacity: 0.55"/>
     <use xlink:href="#m4f759e2ba3" x="509.242393" y="261.600727" style="fill: #267f8f; fill-opacity: 0.55; stroke: #267f8f; stroke-opacity: 0.55"/>
     <use xlink:href="#m4f759e2ba3" x="748.187131" y="246.76123" style="fill: #267f8f; fill-opacity: 0.55; stroke: #267f8f; stroke-opacity: 0.55"/>
     <use xlink:href="#m4f759e2ba3" x="605.100712" y="250.568503" style="fill: #267f8f; fill-opacity: 0.55; stroke: #267f8f; stroke-opacity: 0.55"/>
     <use xlink:href="#m4f759e2ba3" x="506.789903" y="248.112331" style="fill: #267f8f; fill-opacity: 0.55; stroke: #267f8f; stroke-opacity: 0.55"/>
     <use xlink:href="#m4f759e2ba3" x="558.824027" y="255.952793" style="fill: #267f8f; fill-opacity: 0.55; stroke: #267f8f; stroke-opacity: 0.55"/>
     <use xlink:href="#m4f759e2ba3" x="503.268719" y="243.981705" style="fill: #267f8f; fill-opacity: 0.55; stroke: #267f8f; stroke-opacity: 0.55"/>
     <use xlink:href="#m4f759e2ba3" x="545.181402" y="245.488881" style="fill: #267f8f; fill-opacity: 0.55; stroke: #267f8f; stroke-opacity: 0.55"/>
     <use xlink:href="#m4f759e2ba3" x="376.260957" y="247.718022" style="fill: #267f8f; fill-opacity: 0.55; stroke: #267f8f; stroke-opacity: 0.55"/>
     <use xlink:href="#m4f759e2ba3" x="547.00098" y="259.059107" style="fill: #267f8f; fill-opacity: 0.55; stroke: #267f8f; stroke-opacity: 0.55"/>
    </g>
   </g>
   <g id="PathCollection_2">
    <g clip-path="url(#p27cae2c26a)">
     <use xlink:href="#m4f759e2ba3" x="509.242393" y="145.838843" style="fill: #267f8f; fill-opacity: 0.55; stroke: #267f8f; stroke-opacity: 0.55"/>
     <use xlink:href="#m4f759e2ba3" x="510.039534" y="154.055345" style="fill: #267f8f; fill-opacity: 0.55; stroke: #267f8f; stroke-opacity: 0.55"/>
     <use xlink:href="#m4f759e2ba3" x="509.242393" y="151.908811" style="fill: #267f8f; fill-opacity: 0.55; stroke: #267f8f; stroke-opacity: 0.55"/>
     <use xlink:href="#m4f759e2ba3" x="573.754351" y="141.635989" style="fill: #267f8f; fill-opacity: 0.55; stroke: #267f8f; stroke-opacity: 0.55"/>
     <use xlink:href="#m4f759e2ba3" x="459.710311" y="140.437015" style="fill: #267f8f; fill-opacity: 0.55; stroke: #267f8f; stroke-opacity: 0.55"/>
     <use xlink:href="#m4f759e2ba3" x="509.242393" y="136.10944" style="fill: #267f8f; fill-opacity: 0.55; stroke: #267f8f; stroke-opacity: 0.55"/>
     <use xlink:href="#m4f759e2ba3" x="581.491961" y="148.576185" style="fill: #267f8f; fill-opacity: 0.55; stroke: #267f8f; stroke-opacity: 0.55"/>
     <use xlink:href="#m4f759e2ba3" x="509.242393" y="147.709022" style="fill: #267f8f; fill-opacity: 0.55; stroke: #267f8f; stroke-opacity: 0.55"/>
     <use xlink:href="#m4f759e2ba3" x="509.242393" y="145.783768" style="fill: #267f8f; fill-opacity: 0.55; stroke: #267f8f; stroke-opacity: 0.55"/>
     <use xlink:href="#m4f759e2ba3" x="509.242393" y="151.225292" style="fill: #267f8f; fill-opacity: 0.55; stroke: #267f8f; stroke-opacity: 0.55"/>
     <use xlink:href="#m4f759e2ba3" x="543.46778" y="152.382236" style="fill: #267f8f; fill-opacity: 0.55; stroke: #267f8f; stroke-opacity: 0.55"/>
     <use xlink:href="#m4f759e2ba3" x="509.242393" y="145.664302" style="fill: #267f8f; fill-opacity: 0.55; stroke: #267f8f; stroke-opacity: 0.55"/>
     <use xlink:href="#m4f759e2ba3" x="465.633884" y="150.497941" style="fill: #267f8f; fill-opacity: 0.55; stroke: #267f8f; stroke-opacity: 0.55"/>
     <use xlink:href="#m4f759e2ba3" x="545.675849" y="141.89312" style="fill: #267f8f; fill-opacity: 0.55; stroke: #267f8f; stroke-opacity: 0.55"/>
     <use xlink:href="#m4f759e2ba3" x="466.726115" y="146.413315" style="fill: #267f8f; fill-opacity: 0.55; stroke: #267f8f; stroke-opacity: 0.55"/>
     <use xlink:href="#m4f759e2ba3" x="445.441907" y="138.728969" style="fill: #267f8f; fill-opacity: 0.55; stroke: #267f8f; stroke-opacity: 0.55"/>
     <use xlink:href="#m4f759e2ba3" x="509.242393" y="141.301511" style="fill: #267f8f; fill-opacity: 0.55; stroke: #267f8f; stroke-opacity: 0.55"/>
     <use xlink:href="#m4f759e2ba3" x="526.72911" y="148.837663" style="fill: #267f8f; fill-opacity: 0.55; stroke: #267f8f; stroke-opacity: 0.55"/>
     <use xlink:href="#m4f759e2ba3" x="480.30718" y="138.737097" style="fill: #267f8f; fill-opacity: 0.55; stroke: #267f8f; stroke-opacity: 0.55"/>
     <use xlink:href="#m4f759e2ba3" x="592.218437" y="139.271283" style="fill: #267f8f; fill-opacity: 0.55; stroke: #267f8f; stroke-opacity: 0.55"/>
     <use xlink:href="#m4f759e2ba3" x="509.242393" y="147.378381" style="fill: #267f8f; fill-opacity: 0.55; stroke: #267f8f; stroke-opacity: 0.55"/>
    </g>
   </g>
   <g id="PathCollection_3">
    <g clip-path="url(#p27cae2c26a)">
     <use xlink:href="#m4f759e2ba3" x="514.713076" y="41.370481" style="fill: #267f8f; fill-opacity: 0.55; stroke: #267f8f; stroke-opacity: 0.55"/>
     <use xlink:href="#m4f759e2ba3" x="508.510343" y="33.712535" style="fill: #267f8f; fill-opacity: 0.55; stroke: #267f8f; stroke-opacity: 0.55"/>
     <use xlink:href="#m4f759e2ba3" x="509.259539" y="44.257031" style="fill: #267f8f; fill-opacity: 0.55; stroke: #267f8f; stroke-opacity: 0.55"/>
     <use xlink:href="#m4f759e2ba3" x="507.152932" y="43.088317" style="fill: #267f8f; fill-opacity: 0.55; stroke: #267f8f; stroke-opacity: 0.55"/>
    </g>
   </g>
   <g id="matplotlib.axis_1">
    <g id="xtick_1">
     <g id="line2d_1">
      <defs>
       <path id="mf4e22d4445" d="M 0 0
L 0 3.5
" style="stroke: #000000; stroke-width: 0.8"/>
      </defs>
      <g>
       <use xlink:href="#mf4e22d4445" x="224.715532" y="272.995137" style="stroke: #000000; stroke-width: 0.8"/>
      </g>
     </g>
     <g id="text_1">
      <!-- −8 -->
      <g transform="translate(217.344438 287.592793) scale(0.1 -0.1)">
       <defs>
        <path id="DejaVuSans-c9c" d="M 678 2272
L 4684 2272
L 4684 1741
L 678 1741
L 678 2272
z
" transform="scale(0.015625)"/>
        <path id="DejaVuSans-1b" d="M 2034 2216
Q 1584 2216 1326 1975
Q 1069 1734 1069 1313
Q 1069 891 1326 650
Q 1584 409 2034 409
Q 2484 409 2743 651
Q 3003 894 3003 1313
Q 3003 1734 2745 1975
Q 2488 2216 2034 2216
z
M 1403 2484
Q 997 2584 770 2862
Q 544 3141 544 3541
Q 544 4100 942 4425
Q 1341 4750 2034 4750
Q 2731 4750 3128 4425
Q 3525 4100 3525 3541
Q 3525 3141 3298 2862
Q 3072 2584 2669 2484
Q 3125 2378 3379 2068
Q 3634 1759 3634 1313
Q 3634 634 3220 271
Q 2806 -91 2034 -91
Q 1263 -91 848 271
Q 434 634 434 1313
Q 434 1759 690 2068
Q 947 2378 1403 2484
z
M 1172 3481
Q 1172 3119 1398 2916
Q 1625 2713 2034 2713
Q 2441 2713 2670 2916
Q 2900 3119 2900 3481
Q 2900 3844 2670 4047
Q 2441 4250 2034 4250
Q 1625 4250 1398 4047
Q 1172 3844 1172 3481
z
" transform="scale(0.015625)"/>
       </defs>
       <use xlink:href="#DejaVuSans-c9c"/>
       <use xlink:href="#DejaVuSans-1b" transform="translate(83.796875 0)"/>
      </g>
     </g>
    </g>
    <g id="xtick_2">
     <g id="line2d_2">
      <g>
       <use xlink:href="#mf4e22d4445" x="295.847247" y="272.995137" style="stroke: #000000; stroke-width: 0.8"/>
      </g>
     </g>
     <g id="text_2">
      <!-- −6 -->
      <g transform="translate(288.476153 287.592793) scale(0.1 -0.1)">
       <defs>
        <path id="DejaVuSans-19" d="M 2113 2584
Q 1688 2584 1439 2293
Q 1191 2003 1191 1497
Q 1191 994 1439 701
Q 1688 409 2113 409
Q 2538 409 2786 701
Q 3034 994 3034 1497
Q 3034 2003 2786 2293
Q 2538 2584 2113 2584
z
M 3366 4563
L 3366 3988
Q 3128 4100 2886 4159
Q 2644 4219 2406 4219
Q 1781 4219 1451 3797
Q 1122 3375 1075 2522
Q 1259 2794 1537 2939
Q 1816 3084 2150 3084
Q 2853 3084 3261 2657
Q 3669 2231 3669 1497
Q 3669 778 3244 343
Q 2819 -91 2113 -91
Q 1303 -91 875 529
Q 447 1150 447 2328
Q 447 3434 972 4092
Q 1497 4750 2381 4750
Q 2619 4750 2861 4703
Q 3103 4656 3366 4563
z
" transform="scale(0.015625)"/>
       </defs>
       <use xlink:href="#DejaVuSans-c9c"/>
       <use xlink:href="#DejaVuSans-19" transform="translate(83.796875 0)"/>
      </g>
     </g>
    </g>
    <g id="xtick_3">
     <g id="line2d_3">
      <g>
       <use xlink:href="#mf4e22d4445" x="366.978962" y="272.995137" style="stroke: #000000; stroke-width: 0.8"/>
      </g>
     </g>
     <g id="text_3">
      <!-- −4 -->
      <g transform="translate(359.607868 287.592793) scale(0.1 -0.1)">
       <defs>
        <path id="DejaVuSans-17" d="M 2419 4116
L 825 1625
L 2419 1625
L 2419 4116
z
M 2253 4666
L 3047 4666
L 3047 1625
L 3713 1625
L 3713 1100
L 3047 1100
L 3047 0
L 2419 0
L 2419 1100
L 313 1100
L 313 1709
L 2253 4666
z
" transform="scale(0.015625)"/>
       </defs>
       <use xlink:href="#DejaVuSans-c9c"/>
       <use xlink:href="#DejaVuSans-17" transform="translate(83.796875 0)"/>
      </g>
     </g>
    </g>
    <g id="xtick_4">
     <g id="line2d_4">
      <g>
       <use xlink:href="#mf4e22d4445" x="438.110677" y="272.995137" style="stroke: #000000; stroke-width: 0.8"/>
      </g>
     </g>
     <g id="text_4">
      <!-- −2 -->
      <g transform="translate(430.739584 287.592793) scale(0.1 -0.1)">
       <defs>
        <path id="DejaVuSans-15" d="M 1228 531
L 3431 531
L 3431 0
L 469 0
L 469 531
Q 828 903 1448 1529
Q 2069 2156 2228 2338
Q 2531 2678 2651 2914
Q 2772 3150 2772 3378
Q 2772 3750 2511 3984
Q 2250 4219 1831 4219
Q 1534 4219 1204 4116
Q 875 4013 500 3803
L 500 4441
Q 881 4594 1212 4672
Q 1544 4750 1819 4750
Q 2544 4750 2975 4387
Q 3406 4025 3406 3419
Q 3406 3131 3298 2873
Q 3191 2616 2906 2266
Q 2828 2175 2409 1742
Q 1991 1309 1228 531
z
" transform="scale(0.015625)"/>
       </defs>
       <use xlink:href="#DejaVuSans-c9c"/>
       <use xlink:href="#DejaVuSans-15" transform="translate(83.796875 0)"/>
      </g>
     </g>
    </g>
    <g id="xtick_5">
     <g id="line2d_5">
      <g>
       <use xlink:href="#mf4e22d4445" x="509.242393" y="272.995137" style="stroke: #000000; stroke-width: 0.8"/>
      </g>
     </g>
     <g id="text_5">
      <!-- 0 -->
      <g transform="translate(506.061143 287.592793) scale(0.1 -0.1)">
       <defs>
        <path id="DejaVuSans-13" d="M 2034 4250
Q 1547 4250 1301 3770
Q 1056 3291 1056 2328
Q 1056 1369 1301 889
Q 1547 409 2034 409
Q 2525 409 2770 889
Q 3016 1369 3016 2328
Q 3016 3291 2770 3770
Q 2525 4250 2034 4250
z
M 2034 4750
Q 2819 4750 3233 4129
Q 3647 3509 3647 2328
Q 3647 1150 3233 529
Q 2819 -91 2034 -91
Q 1250 -91 836 529
Q 422 1150 422 2328
Q 422 3509 836 4129
Q 1250 4750 2034 4750
z
" transform="scale(0.015625)"/>
       </defs>
       <use xlink:href="#DejaVuSans-13"/>
      </g>
     </g>
    </g>
    <g id="xtick_6">
     <g id="line2d_6">
      <g>
       <use xlink:href="#mf4e22d4445" x="580.374108" y="272.995137" style="stroke: #000000; stroke-width: 0.8"/>
      </g>
     </g>
     <g id="text_6">
      <!-- 2 -->
      <g transform="translate(577.192858 287.592793) scale(0.1 -0.1)">
       <use xlink:href="#DejaVuSans-15"/>
      </g>
     </g>
    </g>
    <g id="xtick_7">
     <g id="line2d_7">
      <g>
       <use xlink:href="#mf4e22d4445" x="651.505823" y="272.995137" style="stroke: #000000; stroke-width: 0.8"/>
      </g>
     </g>
     <g id="text_7">
      <!-- 4 -->
      <g transform="translate(648.324573 287.592793) scale(0.1 -0.1)">
       <use xlink:href="#DejaVuSans-17"/>
      </g>
     </g>
    </g>
    <g id="xtick_8">
     <g id="line2d_8">
      <g>
       <use xlink:href="#mf4e22d4445" x="722.637538" y="272.995137" style="stroke: #000000; stroke-width: 0.8"/>
      </g>
     </g>
     <g id="text_8">
      <!-- 6 -->
      <g transform="translate(719.456288 287.592793) scale(0.1 -0.1)">
       <use xlink:href="#DejaVuSans-19"/>
      </g>
     </g>
    </g>
    <g id="text_9">
     <!-- Change in predicted high-class probability (percentage points) -->
     <g transform="translate(337.556875 301.593574) scale(0.1 -0.1)">
      <defs>
       <path id="DejaVuSans-26" d="M 4122 4306
L 4122 3641
Q 3803 3938 3442 4084
Q 3081 4231 2675 4231
Q 1875 4231 1450 3742
Q 1025 3253 1025 2328
Q 1025 1406 1450 917
Q 1875 428 2675 428
Q 3081 428 3442 575
Q 3803 722 4122 1019
L 4122 359
Q 3791 134 3420 21
Q 3050 -91 2638 -91
Q 1578 -91 968 557
Q 359 1206 359 2328
Q 359 3453 968 4101
Q 1578 4750 2638 4750
Q 3056 4750 3426 4639
Q 3797 4528 4122 4306
z
" transform="scale(0.015625)"/>
       <path id="DejaVuSans-4b" d="M 3513 2113
L 3513 0
L 2938 0
L 2938 2094
Q 2938 2591 2744 2837
Q 2550 3084 2163 3084
Q 1697 3084 1428 2787
Q 1159 2491 1159 1978
L 1159 0
L 581 0
L 581 4863
L 1159 4863
L 1159 2956
Q 1366 3272 1645 3428
Q 1925 3584 2291 3584
Q 2894 3584 3203 3211
Q 3513 2838 3513 2113
z
" transform="scale(0.015625)"/>
       <path id="DejaVuSans-44" d="M 2194 1759
Q 1497 1759 1228 1600
Q 959 1441 959 1056
Q 959 750 1161 570
Q 1363 391 1709 391
Q 2188 391 2477 730
Q 2766 1069 2766 1631
L 2766 1759
L 2194 1759
z
M 3341 1997
L 3341 0
L 2766 0
L 2766 531
Q 2569 213 2275 61
Q 1981 -91 1556 -91
Q 1019 -91 701 211
Q 384 513 384 1019
Q 384 1609 779 1909
Q 1175 2209 1959 2209
L 2766 2209
L 2766 2266
Q 2766 2663 2505 2880
Q 2244 3097 1772 3097
Q 1472 3097 1187 3025
Q 903 2953 641 2809
L 641 3341
Q 956 3463 1253 3523
Q 1550 3584 1831 3584
Q 2591 3584 2966 3190
Q 3341 2797 3341 1997
z
" transform="scale(0.015625)"/>
       <path id="DejaVuSans-51" d="M 3513 2113
L 3513 0
L 2938 0
L 2938 2094
Q 2938 2591 2744 2837
Q 2550 3084 2163 3084
Q 1697 3084 1428 2787
Q 1159 2491 1159 1978
L 1159 0
L 581 0
L 581 3500
L 1159 3500
L 1159 2956
Q 1366 3272 1645 3428
Q 1925 3584 2291 3584
Q 2894 3584 3203 3211
Q 3513 2838 3513 2113
z
" transform="scale(0.015625)"/>
       <path id="DejaVuSans-4a" d="M 2906 1791
Q 2906 2416 2648 2759
Q 2391 3103 1925 3103
Q 1463 3103 1205 2759
Q 947 2416 947 1791
Q 947 1169 1205 825
Q 1463 481 1925 481
Q 2391 481 2648 825
Q 2906 1169 2906 1791
z
M 3481 434
Q 3481 -459 3084 -895
Q 2688 -1331 1869 -1331
Q 1566 -1331 1297 -1286
Q 1028 -1241 775 -1147
L 775 -588
Q 1028 -725 1275 -790
Q 1522 -856 1778 -856
Q 2344 -856 2625 -561
Q 2906 -266 2906 331
L 2906 616
Q 2728 306 2450 153
Q 2172 0 1784 0
Q 1141 0 747 490
Q 353 981 353 1791
Q 353 2603 747 3093
Q 1141 3584 1784 3584
Q 2172 3584 2450 3431
Q 2728 3278 2906 2969
L 2906 3500
L 3481 3500
L 3481 434
z
" transform="scale(0.015625)"/>
       <path id="DejaVuSans-48" d="M 3597 1894
L 3597 1613
L 953 1613
Q 991 1019 1311 708
Q 1631 397 2203 397
Q 2534 397 2845 478
Q 3156 559 3463 722
L 3463 178
Q 3153 47 2828 -22
Q 2503 -91 2169 -91
Q 1331 -91 842 396
Q 353 884 353 1716
Q 353 2575 817 3079
Q 1281 3584 2069 3584
Q 2775 3584 3186 3129
Q 3597 2675 3597 1894
z
M 3022 2063
Q 3016 2534 2758 2815
Q 2500 3097 2075 3097
Q 1594 3097 1305 2825
Q 1016 2553 972 2059
L 3022 2063
z
" transform="scale(0.015625)"/>
       <path id="DejaVuSans-3" transform="scale(0.015625)"/>
       <path id="DejaVuSans-4c" d="M 603 3500
L 1178 3500
L 1178 0
L 603 0
L 603 3500
z
M 603 4863
L 1178 4863
L 1178 4134
L 603 4134
L 603 4863
z
" transform="scale(0.015625)"/>
       <path id="DejaVuSans-53" d="M 1159 525
L 1159 -1331
L 581 -1331
L 581 3500
L 1159 3500
L 1159 2969
Q 1341 3281 1617 3432
Q 1894 3584 2278 3584
Q 2916 3584 3314 3078
Q 3713 2572 3713 1747
Q 3713 922 3314 415
Q 2916 -91 2278 -91
Q 1894 -91 1617 61
Q 1341 213 1159 525
z
M 3116 1747
Q 3116 2381 2855 2742
Q 2594 3103 2138 3103
Q 1681 3103 1420 2742
Q 1159 2381 1159 1747
Q 1159 1113 1420 752
Q 1681 391 2138 391
Q 2594 391 2855 752
Q 3116 1113 3116 1747
z
" transform="scale(0.015625)"/>
       <path id="DejaVuSans-55" d="M 2631 2963
Q 2534 3019 2420 3045
Q 2306 3072 2169 3072
Q 1681 3072 1420 2755
Q 1159 2438 1159 1844
L 1159 0
L 581 0
L 581 3500
L 1159 3500
L 1159 2956
Q 1341 3275 1631 3429
Q 1922 3584 2338 3584
Q 2397 3584 2469 3576
Q 2541 3569 2628 3553
L 2631 2963
z
" transform="scale(0.015625)"/>
       <path id="DejaVuSans-47" d="M 2906 2969
L 2906 4863
L 3481 4863
L 3481 0
L 2906 0
L 2906 525
Q 2725 213 2448 61
Q 2172 -91 1784 -91
Q 1150 -91 751 415
Q 353 922 353 1747
Q 353 2572 751 3078
Q 1150 3584 1784 3584
Q 2172 3584 2448 3432
Q 2725 3281 2906 2969
z
M 947 1747
Q 947 1113 1208 752
Q 1469 391 1925 391
Q 2381 391 2643 752
Q 2906 1113 2906 1747
Q 2906 2381 2643 2742
Q 2381 3103 1925 3103
Q 1469 3103 1208 2742
Q 947 2381 947 1747
z
" transform="scale(0.015625)"/>
       <path id="DejaVuSans-46" d="M 3122 3366
L 3122 2828
Q 2878 2963 2633 3030
Q 2388 3097 2138 3097
Q 1578 3097 1268 2742
Q 959 2388 959 1747
Q 959 1106 1268 751
Q 1578 397 2138 397
Q 2388 397 2633 464
Q 2878 531 3122 666
L 3122 134
Q 2881 22 2623 -34
Q 2366 -91 2075 -91
Q 1284 -91 818 406
Q 353 903 353 1747
Q 353 2603 823 3093
Q 1294 3584 2113 3584
Q 2378 3584 2631 3529
Q 2884 3475 3122 3366
z
" transform="scale(0.015625)"/>
       <path id="DejaVuSans-57" d="M 1172 4494
L 1172 3500
L 2356 3500
L 2356 3053
L 1172 3053
L 1172 1153
Q 1172 725 1289 603
Q 1406 481 1766 481
L 2356 481
L 2356 0
L 1766 0
Q 1100 0 847 248
Q 594 497 594 1153
L 594 3053
L 172 3053
L 172 3500
L 594 3500
L 594 4494
L 1172 4494
z
" transform="scale(0.015625)"/>
       <path id="DejaVuSans-10" d="M 313 2009
L 1997 2009
L 1997 1497
L 313 1497
L 313 2009
z
" transform="scale(0.015625)"/>
       <path id="DejaVuSans-4f" d="M 603 4863
L 1178 4863
L 1178 0
L 603 0
L 603 4863
z
" transform="scale(0.015625)"/>
       <path id="DejaVuSans-56" d="M 2834 3397
L 2834 2853
Q 2591 2978 2328 3040
Q 2066 3103 1784 3103
Q 1356 3103 1142 2972
Q 928 2841 928 2578
Q 928 2378 1081 2264
Q 1234 2150 1697 2047
L 1894 2003
Q 2506 1872 2764 1633
Q 3022 1394 3022 966
Q 3022 478 2636 193
Q 2250 -91 1575 -91
Q 1294 -91 989 -36
Q 684 19 347 128
L 347 722
Q 666 556 975 473
Q 1284 391 1588 391
Q 1994 391 2212 530
Q 2431 669 2431 922
Q 2431 1156 2273 1281
Q 2116 1406 1581 1522
L 1381 1569
Q 847 1681 609 1914
Q 372 2147 372 2553
Q 372 3047 722 3315
Q 1072 3584 1716 3584
Q 2034 3584 2315 3537
Q 2597 3491 2834 3397
z
" transform="scale(0.015625)"/>
       <path id="DejaVuSans-52" d="M 1959 3097
Q 1497 3097 1228 2736
Q 959 2375 959 1747
Q 959 1119 1226 758
Q 1494 397 1959 397
Q 2419 397 2687 759
Q 2956 1122 2956 1747
Q 2956 2369 2687 2733
Q 2419 3097 1959 3097
z
M 1959 3584
Q 2709 3584 3137 3096
Q 3566 2609 3566 1747
Q 3566 888 3137 398
Q 2709 -91 1959 -91
Q 1206 -91 779 398
Q 353 888 353 1747
Q 353 2609 779 3096
Q 1206 3584 1959 3584
z
" transform="scale(0.015625)"/>
       <path id="DejaVuSans-45" d="M 3116 1747
Q 3116 2381 2855 2742
Q 2594 3103 2138 3103
Q 1681 3103 1420 2742
Q 1159 2381 1159 1747
Q 1159 1113 1420 752
Q 1681 391 2138 391
Q 2594 391 2855 752
Q 3116 1113 3116 1747
z
M 1159 2969
Q 1341 3281 1617 3432
Q 1894 3584 2278 3584
Q 2916 3584 3314 3078
Q 3713 2572 3713 1747
Q 3713 922 3314 415
Q 2916 -91 2278 -91
Q 1894 -91 1617 61
Q 1341 213 1159 525
L 1159 0
L 581 0
L 581 4863
L 1159 4863
L 1159 2969
z
" transform="scale(0.015625)"/>
       <path id="DejaVuSans-5c" d="M 2059 -325
Q 1816 -950 1584 -1140
Q 1353 -1331 966 -1331
L 506 -1331
L 506 -850
L 844 -850
Q 1081 -850 1212 -737
Q 1344 -625 1503 -206
L 1606 56
L 191 3500
L 800 3500
L 1894 763
L 2988 3500
L 3597 3500
L 2059 -325
z
" transform="scale(0.015625)"/>
       <path id="DejaVuSans-b" d="M 1984 4856
Q 1566 4138 1362 3434
Q 1159 2731 1159 2009
Q 1159 1288 1364 580
Q 1569 -128 1984 -844
L 1484 -844
Q 1016 -109 783 600
Q 550 1309 550 2009
Q 550 2706 781 3412
Q 1013 4119 1484 4856
L 1984 4856
z
" transform="scale(0.015625)"/>
       <path id="DejaVuSans-c" d="M 513 4856
L 1013 4856
Q 1481 4119 1714 3412
Q 1947 2706 1947 2009
Q 1947 1309 1714 600
Q 1481 -109 1013 -844
L 513 -844
Q 928 -128 1133 580
Q 1338 1288 1338 2009
Q 1338 2731 1133 3434
Q 928 4138 513 4856
z
" transform="scale(0.015625)"/>
      </defs>
      <use xlink:href="#DejaVuSans-26"/>
      <use xlink:href="#DejaVuSans-4b" transform="translate(69.828125 0)"/>
      <use xlink:href="#DejaVuSans-44" transform="translate(133.203125 0)"/>
      <use xlink:href="#DejaVuSans-51" transform="translate(194.484375 0)"/>
      <use xlink:href="#DejaVuSans-4a" transform="translate(257.859375 0)"/>
      <use xlink:href="#DejaVuSans-48" transform="translate(321.34375 0)"/>
      <use xlink:href="#DejaVuSans-3" transform="translate(382.875 0)"/>
      <use xlink:href="#DejaVuSans-4c" transform="translate(414.65625 0)"/>
      <use xlink:href="#DejaVuSans-51" transform="translate(442.4375 0)"/>
      <use xlink:href="#DejaVuSans-3" transform="translate(505.8125 0)"/>
      <use xlink:href="#DejaVuSans-53" transform="translate(537.59375 0)"/>
      <use xlink:href="#DejaVuSans-55" transform="translate(601.078125 0)"/>
      <use xlink:href="#DejaVuSans-48" transform="translate(639.984375 0)"/>
      <use xlink:href="#DejaVuSans-47" transform="translate(701.515625 0)"/>
      <use xlink:href="#DejaVuSans-4c" transform="translate(765 0)"/>
      <use xlink:href="#DejaVuSans-46" transform="translate(792.78125 0)"/>
      <use xlink:href="#DejaVuSans-57" transform="translate(847.765625 0)"/>
      <use xlink:href="#DejaVuSans-48" transform="translate(886.96875 0)"/>
      <use xlink:href="#DejaVuSans-47" transform="translate(948.5 0)"/>
      <use xlink:href="#DejaVuSans-3" transform="translate(1011.984375 0)"/>
      <use xlink:href="#DejaVuSans-4b" transform="translate(1043.765625 0)"/>
      <use xlink:href="#DejaVuSans-4c" transform="translate(1107.140625 0)"/>
      <use xlink:href="#DejaVuSans-4a" transform="translate(1134.921875 0)"/>
      <use xlink:href="#DejaVuSans-4b" transform="translate(1198.40625 0)"/>
      <use xlink:href="#DejaVuSans-10" transform="translate(1261.78125 0)"/>
      <use xlink:href="#DejaVuSans-46" transform="translate(1297.859375 0)"/>
      <use xlink:href="#DejaVuSans-4f" transform="translate(1352.84375 0)"/>
      <use xlink:href="#DejaVuSans-44" transform="translate(1380.625 0)"/>
      <use xlink:href="#DejaVuSans-56" transform="translate(1441.90625 0)"/>
      <use xlink:href="#DejaVuSans-56" transform="translate(1494 0)"/>
      <use xlink:href="#DejaVuSans-3" transform="translate(1546.09375 0)"/>
      <use xlink:href="#DejaVuSans-53" transform="translate(1577.875 0)"/>
      <use xlink:href="#DejaVuSans-55" transform="translate(1641.359375 0)"/>
      <use xlink:href="#DejaVuSans-52" transform="translate(1680.265625 0)"/>
      <use xlink:href="#DejaVuSans-45" transform="translate(1741.453125 0)"/>
      <use xlink:href="#DejaVuSans-44" transform="translate(1804.9375 0)"/>
      <use xlink:href="#DejaVuSans-45" transform="translate(1866.21875 0)"/>
      <use xlink:href="#DejaVuSans-4c" transform="translate(1929.703125 0)"/>
      <use xlink:href="#DejaVuSans-4f" transform="translate(1957.484375 0)"/>
      <use xlink:href="#DejaVuSans-4c" transform="translate(1985.265625 0)"/>
      <use xlink:href="#DejaVuSans-57" transform="translate(2013.046875 0)"/>
      <use xlink:href="#DejaVuSans-5c" transform="translate(2052.25 0)"/>
      <use xlink:href="#DejaVuSans-3" transform="translate(2111.4375 0)"/>
      <use xlink:href="#DejaVuSans-b" transform="translate(2143.21875 0)"/>
      <use xlink:href="#DejaVuSans-53" transform="translate(2182.234375 0)"/>
      <use xlink:href="#DejaVuSans-48" transform="translate(2245.71875 0)"/>
      <use xlink:href="#DejaVuSans-55" transform="translate(2307.25 0)"/>
      <use xlink:href="#DejaVuSans-46" transform="translate(2346.15625 0)"/>
      <use xlink:href="#DejaVuSans-48" transform="translate(2401.140625 0)"/>
      <use xlink:href="#DejaVuSans-51" transform="translate(2462.671875 0)"/>
      <use xlink:href="#DejaVuSans-57" transform="translate(2526.046875 0)"/>
      <use xlink:href="#DejaVuSans-44" transform="translate(2565.25 0)"/>
      <use xlink:href="#DejaVuSans-4a" transform="translate(2626.53125 0)"/>
      <use xlink:href="#DejaVuSans-48" transform="translate(2690.015625 0)"/>
      <use xlink:href="#DejaVuSans-3" transform="translate(2751.546875 0)"/>
      <use xlink:href="#DejaVuSans-53" transform="translate(2783.328125 0)"/>
      <use xlink:href="#DejaVuSans-52" transform="translate(2846.8125 0)"/>
      <use xlink:href="#DejaVuSans-4c" transform="translate(2908 0)"/>
      <use xlink:href="#DejaVuSans-51" transform="translate(2935.78125 0)"/>
      <use xlink:href="#DejaVuSans-57" transform="translate(2999.15625 0)"/>
      <use xlink:href="#DejaVuSans-56" transform="translate(3038.359375 0)"/>
      <use xlink:href="#DejaVuSans-c" transform="translate(3090.453125 0)"/>
     </g>
    </g>
   </g>
   <g id="matplotlib.axis_2">
    <g id="ytick_1">
     <g id="line2d_9">
      <defs>
       <path id="mee5248420f" d="M 0 0
L -3.5 0
" style="stroke: #000000; stroke-width: 0.8"/>
      </defs>
      <g>
       <use xlink:href="#mee5248420f" x="214.457812" y="253.1265" style="stroke: #000000; stroke-width: 0.8"/>
      </g>
     </g>
     <g id="text_10">
      <!-- Title ← existing H1 (n=26) -->
      <g transform="translate(76.539062 256.925719) scale(0.1 -0.1)">
       <defs>
        <path id="DejaVuSans-37" d="M -19 4666
L 3928 4666
L 3928 4134
L 2272 4134
L 2272 0
L 1638 0
L 1638 4134
L -19 4134
L -19 4666
z
" transform="scale(0.015625)"/>
        <path id="DejaVuSans-c1a" d="M 313 1866
L 313 2147
L 1541 3375
L 1916 3000
L 1188 2272
L 4997 2272
L 4997 1741
L 1188 1741
L 1916 1013
L 1541 638
L 313 1866
z
" transform="scale(0.015625)"/>
        <path id="DejaVuSans-5b" d="M 3513 3500
L 2247 1797
L 3578 0
L 2900 0
L 1881 1375
L 863 0
L 184 0
L 1544 1831
L 300 3500
L 978 3500
L 1906 2253
L 2834 3500
L 3513 3500
z
" transform="scale(0.015625)"/>
        <path id="DejaVuSans-2b" d="M 628 4666
L 1259 4666
L 1259 2753
L 3553 2753
L 3553 4666
L 4184 4666
L 4184 0
L 3553 0
L 3553 2222
L 1259 2222
L 1259 0
L 628 0
L 628 4666
z
" transform="scale(0.015625)"/>
        <path id="DejaVuSans-14" d="M 794 531
L 1825 531
L 1825 4091
L 703 3866
L 703 4441
L 1819 4666
L 2450 4666
L 2450 531
L 3481 531
L 3481 0
L 794 0
L 794 531
z
" transform="scale(0.015625)"/>
        <path id="DejaVuSans-20" d="M 678 2906
L 4684 2906
L 4684 2381
L 678 2381
L 678 2906
z
M 678 1631
L 4684 1631
L 4684 1100
L 678 1100
L 678 1631
z
" transform="scale(0.015625)"/>
       </defs>
       <use xlink:href="#DejaVuSans-37"/>
       <use xlink:href="#DejaVuSans-4c" transform="translate(58 0)"/>
       <use xlink:href="#DejaVuSans-57" transform="translate(85.78125 0)"/>
       <use xlink:href="#DejaVuSans-4f" transform="translate(124.984375 0)"/>
       <use xlink:href="#DejaVuSans-48" transform="translate(152.765625 0)"/>
       <use xlink:href="#DejaVuSans-3" transform="translate(214.296875 0)"/>
       <use xlink:href="#DejaVuSans-c1a" transform="translate(246.078125 0)"/>
       <use xlink:href="#DejaVuSans-3" transform="translate(329.875 0)"/>
       <use xlink:href="#DejaVuSans-48" transform="translate(361.65625 0)"/>
       <use xlink:href="#DejaVuSans-5b" transform="translate(421.4375 0)"/>
       <use xlink:href="#DejaVuSans-4c" transform="translate(480.625 0)"/>
       <use xlink:href="#DejaVuSans-56" transform="translate(508.40625 0)"/>
       <use xlink:href="#DejaVuSans-57" transform="translate(560.5 0)"/>
       <use xlink:href="#DejaVuSans-4c" transform="translate(599.703125 0)"/>
       <use xlink:href="#DejaVuSans-51" transform="translate(627.484375 0)"/>
       <use xlink:href="#DejaVuSans-4a" transform="translate(690.859375 0)"/>
       <use xlink:href="#DejaVuSans-3" transform="translate(754.34375 0)"/>
       <use xlink:href="#DejaVuSans-2b" transform="translate(786.125 0)"/>
       <use xlink:href="#DejaVuSans-14" transform="translate(861.328125 0)"/>
       <use xlink:href="#DejaVuSans-3" transform="translate(924.953125 0)"/>
       <use xlink:href="#DejaVuSans-b" transform="translate(956.734375 0)"/>
       <use xlink:href="#DejaVuSans-51" transform="translate(995.75 0)"/>
       <use xlink:href="#DejaVuSans-20" transform="translate(1059.125 0)"/>
       <use xlink:href="#DejaVuSans-15" transform="translate(1142.921875 0)"/>
       <use xlink:href="#DejaVuSans-19" transform="translate(1206.546875 0)"/>
       <use xlink:href="#DejaVuSans-c" transform="translate(1270.171875 0)"/>
      </g>
     </g>
    </g>
    <g id="ytick_2">
     <g id="line2d_10">
      <g>
       <use xlink:href="#mee5248420f" x="214.457812" y="145.192293" style="stroke: #000000; stroke-width: 0.8"/>
      </g>
     </g>
     <g id="text_11">
      <!-- Move relevant paragraph earlier (n=21) -->
      <g transform="translate(7.2 148.991512) scale(0.1 -0.1)">
       <defs>
        <path id="DejaVuSans-30" d="M 628 4666
L 1569 4666
L 2759 1491
L 3956 4666
L 4897 4666
L 4897 0
L 4281 0
L 4281 4097
L 3078 897
L 2444 897
L 1241 4097
L 1241 0
L 628 0
L 628 4666
z
" transform="scale(0.015625)"/>
        <path id="DejaVuSans-59" d="M 191 3500
L 800 3500
L 1894 563
L 2988 3500
L 3597 3500
L 2284 0
L 1503 0
L 191 3500
z
" transform="scale(0.015625)"/>
       </defs>
       <use xlink:href="#DejaVuSans-30"/>
       <use xlink:href="#DejaVuSans-52" transform="translate(86.28125 0)"/>
       <use xlink:href="#DejaVuSans-59" transform="translate(147.46875 0)"/>
       <use xlink:href="#DejaVuSans-48" transform="translate(206.65625 0)"/>
       <use xlink:href="#DejaVuSans-3" transform="translate(268.1875 0)"/>
       <use xlink:href="#DejaVuSans-55" transform="translate(299.96875 0)"/>
       <use xlink:href="#DejaVuSans-48" transform="translate(338.875 0)"/>
       <use xlink:href="#DejaVuSans-4f" transform="translate(400.40625 0)"/>
       <use xlink:href="#DejaVuSans-48" transform="translate(428.1875 0)"/>
       <use xlink:href="#DejaVuSans-59" transform="translate(489.71875 0)"/>
       <use xlink:href="#DejaVuSans-44" transform="translate(548.90625 0)"/>
       <use xlink:href="#DejaVuSans-51" transform="translate(610.1875 0)"/>
       <use xlink:href="#DejaVuSans-57" transform="translate(673.5625 0)"/>
       <use xlink:href="#DejaVuSans-3" transform="translate(712.765625 0)"/>
       <use xlink:href="#DejaVuSans-53" transform="translate(744.546875 0)"/>
       <use xlink:href="#DejaVuSans-44" transform="translate(808.03125 0)"/>
       <use xlink:href="#DejaVuSans-55" transform="translate(869.3125 0)"/>
       <use xlink:href="#DejaVuSans-44" transform="translate(910.421875 0)"/>
       <use xlink:href="#DejaVuSans-4a" transform="translate(971.703125 0)"/>
       <use xlink:href="#DejaVuSans-55" transform="translate(1035.1875 0)"/>
       <use xlink:href="#DejaVuSans-44" transform="translate(1076.296875 0)"/>
       <use xlink:href="#DejaVuSans-53" transform="translate(1137.578125 0)"/>
       <use xlink:href="#DejaVuSans-4b" transform="translate(1201.0625 0)"/>
       <use xlink:href="#DejaVuSans-3" transform="translate(1264.4375 0)"/>
       <use xlink:href="#DejaVuSans-48" transform="translate(1296.21875 0)"/>
       <use xlink:href="#DejaVuSans-44" transform="translate(1357.75 0)"/>
       <use xlink:href="#DejaVuSans-55" transform="translate(1419.03125 0)"/>
       <use xlink:href="#DejaVuSans-4f" transform="translate(1460.140625 0)"/>
       <use xlink:href="#DejaVuSans-4c" transform="translate(1487.921875 0)"/>
       <use xlink:href="#DejaVuSans-48" transform="translate(1515.703125 0)"/>
       <use xlink:href="#DejaVuSans-55" transform="translate(1577.234375 0)"/>
       <use xlink:href="#DejaVuSans-3" transform="translate(1618.34375 0)"/>
       <use xlink:href="#DejaVuSans-b" transform="translate(1650.125 0)"/>
       <use xlink:href="#DejaVuSans-51" transform="translate(1689.140625 0)"/>
       <use xlink:href="#DejaVuSans-20" transform="translate(1752.515625 0)"/>
       <use xlink:href="#DejaVuSans-15" transform="translate(1836.3125 0)"/>
       <use xlink:href="#DejaVuSans-14" transform="translate(1899.9375 0)"/>
       <use xlink:href="#DejaVuSans-c" transform="translate(1963.5625 0)"/>
      </g>
     </g>
    </g>
    <g id="ytick_3">
     <g id="line2d_11">
      <g>
       <use xlink:href="#mee5248420f" x="214.457812" y="37.258086" style="stroke: #000000; stroke-width: 0.8"/>
      </g>
     </g>
     <g id="text_12">
      <!-- Split a long paragraph (n=4) -->
      <g transform="translate(63.989062 41.057305) scale(0.1 -0.1)">
       <defs>
        <path id="DejaVuSans-36" d="M 3425 4513
L 3425 3897
Q 3066 4069 2747 4153
Q 2428 4238 2131 4238
Q 1616 4238 1336 4038
Q 1056 3838 1056 3469
Q 1056 3159 1242 3001
Q 1428 2844 1947 2747
L 2328 2669
Q 3034 2534 3370 2195
Q 3706 1856 3706 1288
Q 3706 609 3251 259
Q 2797 -91 1919 -91
Q 1588 -91 1214 -16
Q 841 59 441 206
L 441 856
Q 825 641 1194 531
Q 1563 422 1919 422
Q 2459 422 2753 634
Q 3047 847 3047 1241
Q 3047 1584 2836 1778
Q 2625 1972 2144 2069
L 1759 2144
Q 1053 2284 737 2584
Q 422 2884 422 3419
Q 422 4038 858 4394
Q 1294 4750 2059 4750
Q 2388 4750 2728 4690
Q 3069 4631 3425 4513
z
" transform="scale(0.015625)"/>
       </defs>
       <use xlink:href="#DejaVuSans-36"/>
       <use xlink:href="#DejaVuSans-53" transform="translate(63.484375 0)"/>
       <use xlink:href="#DejaVuSans-4f" transform="translate(126.96875 0)"/>
       <use xlink:href="#DejaVuSans-4c" transform="translate(154.75 0)"/>
       <use xlink:href="#DejaVuSans-57" transform="translate(182.53125 0)"/>
       <use xlink:href="#DejaVuSans-3" transform="translate(221.734375 0)"/>
       <use xlink:href="#DejaVuSans-44" transform="translate(253.515625 0)"/>
       <use xlink:href="#DejaVuSans-3" transform="translate(314.796875 0)"/>
       <use xlink:href="#DejaVuSans-4f" transform="translate(346.578125 0)"/>
       <use xlink:href="#DejaVuSans-52" transform="translate(374.359375 0)"/>
       <use xlink:href="#DejaVuSans-51" transform="translate(435.546875 0)"/>
       <use xlink:href="#DejaVuSans-4a" transform="translate(498.921875 0)"/>
       <use xlink:href="#DejaVuSans-3" transform="translate(562.40625 0)"/>
       <use xlink:href="#DejaVuSans-53" transform="translate(594.1875 0)"/>
       <use xlink:href="#DejaVuSans-44" transform="translate(657.671875 0)"/>
       <use xlink:href="#DejaVuSans-55" transform="translate(718.953125 0)"/>
       <use xlink:href="#DejaVuSans-44" transform="translate(760.0625 0)"/>
       <use xlink:href="#DejaVuSans-4a" transform="translate(821.34375 0)"/>
       <use xlink:href="#DejaVuSans-55" transform="translate(884.828125 0)"/>
       <use xlink:href="#DejaVuSans-44" transform="translate(925.9375 0)"/>
       <use xlink:href="#DejaVuSans-53" transform="translate(987.21875 0)"/>
       <use xlink:href="#DejaVuSans-4b" transform="translate(1050.703125 0)"/>
       <use xlink:href="#DejaVuSans-3" transform="translate(1114.078125 0)"/>
       <use xlink:href="#DejaVuSans-b" transform="translate(1145.859375 0)"/>
       <use xlink:href="#DejaVuSans-51" transform="translate(1184.875 0)"/>
       <use xlink:href="#DejaVuSans-20" transform="translate(1248.25 0)"/>
       <use xlink:href="#DejaVuSans-17" transform="translate(1332.046875 0)"/>
       <use xlink:href="#DejaVuSans-c" transform="translate(1395.671875 0)"/>
      </g>
     </g>
    </g>
   </g>
   <g id="line2d_12">
    <path d="M 509.242393 272.995137
L 509.242393 22.318125
" clip-path="url(#p27cae2c26a)" style="fill: none; stroke: #000000; stroke-width: 0.8; stroke-linecap: square"/>
   </g>
   <g id="patch_3">
    <path d="M 214.457812 272.995137
L 214.457812 22.318125
" style="fill: none; stroke: #000000; stroke-width: 0.8; stroke-linejoin: miter; stroke-linecap: square"/>
   </g>
   <g id="patch_4">
    <path d="M 773.602813 272.995137
L 773.602813 22.318125
" style="fill: none; stroke: #000000; stroke-width: 0.8; stroke-linejoin: miter; stroke-linecap: square"/>
   </g>
   <g id="patch_5">
    <path d="M 214.457812 272.995137
L 773.602812 272.995137
" style="fill: none; stroke: #000000; stroke-width: 0.8; stroke-linejoin: miter; stroke-linecap: square"/>
   </g>
   <g id="patch_6">
    <path d="M 214.457812 22.318125
L 773.602812 22.318125
" style="fill: none; stroke: #000000; stroke-width: 0.8; stroke-linejoin: miter; stroke-linecap: square"/>
   </g>
   <g id="line2d_13">
    <path d="M 430.339653 253.1265
L 514.385302 253.1265
" clip-path="url(#p27cae2c26a)" style="fill: none; stroke: #b64b47; stroke-width: 3; stroke-linecap: square"/>
   </g>
   <g id="line2d_14">
    <path d="M 496.771277 145.192293
L 530.133859 145.192293
" clip-path="url(#p27cae2c26a)" style="fill: none; stroke: #b64b47; stroke-width: 3; stroke-linecap: square"/>
   </g>
   <g id="text_13">
    <!-- Dots: applicable pages. Diamond: mean. Line: 95% host-bootstrap interval of the mean. -->
    <g transform="translate(214.457812 324.861929) scale(0.09 -0.09)">
     <defs>
      <path id="DejaVuSans-27" d="M 1259 4147
L 1259 519
L 2022 519
Q 2988 519 3436 956
Q 3884 1394 3884 2338
Q 3884 3275 3436 3711
Q 2988 4147 2022 4147
L 1259 4147
z
M 628 4666
L 1925 4666
Q 3281 4666 3915 4102
Q 4550 3538 4550 2338
Q 4550 1131 3912 565
Q 3275 0 1925 0
L 628 0
L 628 4666
z
" transform="scale(0.015625)"/>
      <path id="DejaVuSans-1d" d="M 750 794
L 1409 794
L 1409 0
L 750 0
L 750 794
z
M 750 3309
L 1409 3309
L 1409 2516
L 750 2516
L 750 3309
z
" transform="scale(0.015625)"/>
      <path id="DejaVuSans-11" d="M 684 794
L 1344 794
L 1344 0
L 684 0
L 684 794
z
" transform="scale(0.015625)"/>
      <path id="DejaVuSans-50" d="M 3328 2828
Q 3544 3216 3844 3400
Q 4144 3584 4550 3584
Q 5097 3584 5394 3201
Q 5691 2819 5691 2113
L 5691 0
L 5113 0
L 5113 2094
Q 5113 2597 4934 2840
Q 4756 3084 4391 3084
Q 3944 3084 3684 2787
Q 3425 2491 3425 1978
L 3425 0
L 2847 0
L 2847 2094
Q 2847 2600 2669 2842
Q 2491 3084 2119 3084
Q 1678 3084 1418 2786
Q 1159 2488 1159 1978
L 1159 0
L 581 0
L 581 3500
L 1159 3500
L 1159 2956
Q 1356 3278 1631 3431
Q 1906 3584 2284 3584
Q 2666 3584 2933 3390
Q 3200 3197 3328 2828
z
" transform="scale(0.015625)"/>
      <path id="DejaVuSans-2f" d="M 628 4666
L 1259 4666
L 1259 531
L 3531 531
L 3531 0
L 628 0
L 628 4666
z
" transform="scale(0.015625)"/>
      <path id="DejaVuSans-1c" d="M 703 97
L 703 672
Q 941 559 1184 500
Q 1428 441 1663 441
Q 2288 441 2617 861
Q 2947 1281 2994 2138
Q 2813 1869 2534 1725
Q 2256 1581 1919 1581
Q 1219 1581 811 2004
Q 403 2428 403 3163
Q 403 3881 828 4315
Q 1253 4750 1959 4750
Q 2769 4750 3195 4129
Q 3622 3509 3622 2328
Q 3622 1225 3098 567
Q 2575 -91 1691 -91
Q 1453 -91 1209 -44
Q 966 3 703 97
z
M 1959 2075
Q 2384 2075 2632 2365
Q 2881 2656 2881 3163
Q 2881 3666 2632 3958
Q 2384 4250 1959 4250
Q 1534 4250 1286 3958
Q 1038 3666 1038 3163
Q 1038 2656 1286 2365
Q 1534 2075 1959 2075
z
" transform="scale(0.015625)"/>
      <path id="DejaVuSans-18" d="M 691 4666
L 3169 4666
L 3169 4134
L 1269 4134
L 1269 2991
Q 1406 3038 1543 3061
Q 1681 3084 1819 3084
Q 2600 3084 3056 2656
Q 3513 2228 3513 1497
Q 3513 744 3044 326
Q 2575 -91 1722 -91
Q 1428 -91 1123 -41
Q 819 9 494 109
L 494 744
Q 775 591 1075 516
Q 1375 441 1709 441
Q 2250 441 2565 725
Q 2881 1009 2881 1497
Q 2881 1984 2565 2268
Q 2250 2553 1709 2553
Q 1456 2553 1204 2497
Q 953 2441 691 2322
L 691 4666
z
" transform="scale(0.015625)"/>
      <path id="DejaVuSans-8" d="M 4653 2053
Q 4381 2053 4226 1822
Q 4072 1591 4072 1178
Q 4072 772 4226 539
Q 4381 306 4653 306
Q 4919 306 5073 539
Q 5228 772 5228 1178
Q 5228 1588 5073 1820
Q 4919 2053 4653 2053
z
M 4653 2450
Q 5147 2450 5437 2106
Q 5728 1763 5728 1178
Q 5728 594 5436 251
Q 5144 -91 4653 -91
Q 4153 -91 3862 251
Q 3572 594 3572 1178
Q 3572 1766 3864 2108
Q 4156 2450 4653 2450
z
M 1428 4353
Q 1159 4353 1004 4120
Q 850 3888 850 3481
Q 850 3069 1003 2837
Q 1156 2606 1428 2606
Q 1700 2606 1854 2837
Q 2009 3069 2009 3481
Q 2009 3884 1853 4118
Q 1697 4353 1428 4353
z
M 4250 4750
L 4750 4750
L 1831 -91
L 1331 -91
L 4250 4750
z
M 1428 4750
Q 1922 4750 2215 4408
Q 2509 4066 2509 3481
Q 2509 2891 2217 2550
Q 1925 2209 1428 2209
Q 931 2209 642 2551
Q 353 2894 353 3481
Q 353 4063 643 4406
Q 934 4750 1428 4750
z
" transform="scale(0.015625)"/>
      <path id="DejaVuSans-49" d="M 2375 4863
L 2375 4384
L 1825 4384
Q 1516 4384 1395 4259
Q 1275 4134 1275 3809
L 1275 3500
L 2222 3500
L 2222 3053
L 1275 3053
L 1275 0
L 697 0
L 697 3053
L 147 3053
L 147 3500
L 697 3500
L 697 3744
Q 697 4328 969 4595
Q 1241 4863 1831 4863
L 2375 4863
z
" transform="scale(0.015625)"/>
     </defs>
     <use xlink:href="#DejaVuSans-27"/>
     <use xlink:href="#DejaVuSans-52" transform="translate(77 0)"/>
     <use xlink:href="#DejaVuSans-57" transform="translate(138.1875 0)"/>
     <use xlink:href="#DejaVuSans-56" transform="translate(177.390625 0)"/>
     <use xlink:href="#DejaVuSans-1d" transform="translate(229.484375 0)"/>
     <use xlink:href="#DejaVuSans-3" transform="translate(263.171875 0)"/>
     <use xlink:href="#DejaVuSans-44" transform="translate(294.953125 0)"/>
     <use xlink:href="#DejaVuSans-53" transform="translate(356.234375 0)"/>
     <use xlink:href="#DejaVuSans-53" transform="translate(419.71875 0)"/>
     <use xlink:href="#DejaVuSans-4f" transform="translate(483.203125 0)"/>
     <use xlink:href="#DejaVuSans-4c" transform="translate(510.984375 0)"/>
     <use xlink:href="#DejaVuSans-46" transform="translate(538.765625 0)"/>
     <use xlink:href="#DejaVuSans-44" transform="translate(593.75 0)"/>
     <use xlink:href="#DejaVuSans-45" transform="translate(655.03125 0)"/>
     <use xlink:href="#DejaVuSans-4f" transform="translate(718.515625 0)"/>
     <use xlink:href="#DejaVuSans-48" transform="translate(746.296875 0)"/>
     <use xlink:href="#DejaVuSans-3" transform="translate(807.828125 0)"/>
     <use xlink:href="#DejaVuSans-53" transform="translate(839.609375 0)"/>
     <use xlink:href="#DejaVuSans-44" transform="translate(903.09375 0)"/>
     <use xlink:href="#DejaVuSans-4a" transform="translate(964.375 0)"/>
     <use xlink:href="#DejaVuSans-48" transform="translate(1027.859375 0)"/>
     <use xlink:href="#DejaVuSans-56" transform="translate(1089.390625 0)"/>
     <use xlink:href="#DejaVuSans-11" transform="translate(1141.484375 0)"/>
     <use xlink:href="#DejaVuSans-3" transform="translate(1173.265625 0)"/>
     <use xlink:href="#DejaVuSans-27" transform="translate(1205.046875 0)"/>
     <use xlink:href="#DejaVuSans-4c" transform="translate(1282.046875 0)"/>
     <use xlink:href="#DejaVuSans-44" transform="translate(1309.828125 0)"/>
     <use xlink:href="#DejaVuSans-50" transform="translate(1371.109375 0)"/>
     <use xlink:href="#DejaVuSans-52" transform="translate(1468.515625 0)"/>
     <use xlink:href="#DejaVuSans-51" transform="translate(1529.703125 0)"/>
     <use xlink:href="#DejaVuSans-47" transform="translate(1593.078125 0)"/>
     <use xlink:href="#DejaVuSans-1d" transform="translate(1656.5625 0)"/>
     <use xlink:href="#DejaVuSans-3" transform="translate(1690.25 0)"/>
     <use xlink:href="#DejaVuSans-50" transform="translate(1722.03125 0)"/>
     <use xlink:href="#DejaVuSans-48" transform="translate(1819.4375 0)"/>
     <use xlink:href="#DejaVuSans-44" transform="translate(1880.96875 0)"/>
     <use xlink:href="#DejaVuSans-51" transform="translate(1942.25 0)"/>
     <use xlink:href="#DejaVuSans-11" transform="translate(2005.625 0)"/>
     <use xlink:href="#DejaVuSans-3" transform="translate(2037.40625 0)"/>
     <use xlink:href="#DejaVuSans-2f" transform="translate(2069.1875 0)"/>
     <use xlink:href="#DejaVuSans-4c" transform="translate(2124.90625 0)"/>
     <use xlink:href="#DejaVuSans-51" transform="translate(2152.6875 0)"/>
     <use xlink:href="#DejaVuSans-48" transform="translate(2216.0625 0)"/>
     <use xlink:href="#DejaVuSans-1d" transform="translate(2277.59375 0)"/>
     <use xlink:href="#DejaVuSans-3" transform="translate(2311.28125 0)"/>
     <use xlink:href="#DejaVuSans-1c" transform="translate(2343.0625 0)"/>
     <use xlink:href="#DejaVuSans-18" transform="translate(2406.6875 0)"/>
     <use xlink:href="#DejaVuSans-8" transform="translate(2470.3125 0)"/>
     <use xlink:href="#DejaVuSans-3" transform="translate(2565.328125 0)"/>
     <use xlink:href="#DejaVuSans-4b" transform="translate(2597.109375 0)"/>
     <use xlink:href="#DejaVuSans-52" transform="translate(2660.484375 0)"/>
     <use xlink:href="#DejaVuSans-56" transform="translate(2721.671875 0)"/>
     <use xlink:href="#DejaVuSans-57" transform="translate(2773.765625 0)"/>
     <use xlink:href="#DejaVuSans-10" transform="translate(2812.96875 0)"/>
     <use xlink:href="#DejaVuSans-45" transform="translate(2849.046875 0)"/>
     <use xlink:href="#DejaVuSans-52" transform="translate(2912.53125 0)"/>
     <use xlink:href="#DejaVuSans-52" transform="translate(2973.71875 0)"/>
     <use xlink:href="#DejaVuSans-57" transform="translate(3034.90625 0)"/>
     <use xlink:href="#DejaVuSans-56" transform="translate(3074.109375 0)"/>
     <use xlink:href="#DejaVuSans-57" transform="translate(3126.203125 0)"/>
     <use xlink:href="#DejaVuSans-55" transform="translate(3165.40625 0)"/>
     <use xlink:href="#DejaVuSans-44" transform="translate(3206.515625 0)"/>
     <use xlink:href="#DejaVuSans-53" transform="translate(3267.796875 0)"/>
     <use xlink:href="#DejaVuSans-3" transform="translate(3331.28125 0)"/>
     <use xlink:href="#DejaVuSans-4c" transform="translate(3363.0625 0)"/>
     <use xlink:href="#DejaVuSans-51" transform="translate(3390.84375 0)"/>
     <use xlink:href="#DejaVuSans-57" transform="translate(3454.21875 0)"/>
     <use xlink:href="#DejaVuSans-48" transform="translate(3493.421875 0)"/>
     <use xlink:href="#DejaVuSans-55" transform="translate(3554.953125 0)"/>
     <use xlink:href="#DejaVuSans-59" transform="translate(3596.0625 0)"/>
     <use xlink:href="#DejaVuSans-44" transform="translate(3655.25 0)"/>
     <use xlink:href="#DejaVuSans-4f" transform="translate(3716.53125 0)"/>
     <use xlink:href="#DejaVuSans-3" transform="translate(3744.3125 0)"/>
     <use xlink:href="#DejaVuSans-52" transform="translate(3776.09375 0)"/>
     <use xlink:href="#DejaVuSans-49" transform="translate(3837.28125 0)"/>
     <use xlink:href="#DejaVuSans-3" transform="translate(3872.484375 0)"/>
     <use xlink:href="#DejaVuSans-57" transform="translate(3904.265625 0)"/>
     <use xlink:href="#DejaVuSans-4b" transform="translate(3943.46875 0)"/>
     <use xlink:href="#DejaVuSans-48" transform="translate(4006.84375 0)"/>
     <use xlink:href="#DejaVuSans-3" transform="translate(4068.375 0)"/>
     <use xlink:href="#DejaVuSans-50" transform="translate(4100.15625 0)"/>
     <use xlink:href="#DejaVuSans-48" transform="translate(4197.5625 0)"/>
     <use xlink:href="#DejaVuSans-44" transform="translate(4259.09375 0)"/>
     <use xlink:href="#DejaVuSans-51" transform="translate(4320.375 0)"/>
     <use xlink:href="#DejaVuSans-11" transform="translate(4383.75 0)"/>
    </g>
    <!-- Small selected development sample; intervals describe model sensitivity, not citation uplift. -->
    <g transform="translate(214.457812 335.66439) scale(0.09 -0.09)">
     <defs>
      <path id="DejaVuSans-1e" d="M 750 3309
L 1409 3309
L 1409 2516
L 750 2516
L 750 3309
z
M 750 794
L 1409 794
L 1409 256
L 897 -744
L 494 -744
L 750 256
L 750 794
z
" transform="scale(0.015625)"/>
      <path id="DejaVuSans-f" d="M 750 794
L 1409 794
L 1409 256
L 897 -744
L 494 -744
L 750 256
L 750 794
z
" transform="scale(0.015625)"/>
      <path id="DejaVuSans-58" d="M 544 1381
L 544 3500
L 1119 3500
L 1119 1403
Q 1119 906 1312 657
Q 1506 409 1894 409
Q 2359 409 2629 706
Q 2900 1003 2900 1516
L 2900 3500
L 3475 3500
L 3475 0
L 2900 0
L 2900 538
Q 2691 219 2414 64
Q 2138 -91 1772 -91
Q 1169 -91 856 284
Q 544 659 544 1381
z
M 1991 3584
L 1991 3584
z
" transform="scale(0.015625)"/>
     </defs>
     <use xlink:href="#DejaVuSans-36"/>
     <use xlink:href="#DejaVuSans-50" transform="translate(63.484375 0)"/>
     <use xlink:href="#DejaVuSans-44" transform="translate(160.890625 0)"/>
     <use xlink:href="#DejaVuSans-4f" transform="translate(222.171875 0)"/>
     <use xlink:href="#DejaVuSans-4f" transform="translate(249.953125 0)"/>
     <use xlink:href="#DejaVuSans-3" transform="translate(277.734375 0)"/>
     <use xlink:href="#DejaVuSans-56" transform="translate(309.515625 0)"/>
     <use xlink:href="#DejaVuSans-48" transform="translate(361.609375 0)"/>
     <use xlink:href="#DejaVuSans-4f" transform="translate(423.140625 0)"/>
     <use xlink:href="#DejaVuSans-48" transform="translate(450.921875 0)"/>
     <use xlink:href="#DejaVuSans-46" transform="translate(512.453125 0)"/>
     <use xlink:href="#DejaVuSans-57" transform="translate(567.4375 0)"/>
     <use xlink:href="#DejaVuSans-48" transform="translate(606.640625 0)"/>
     <use xlink:href="#DejaVuSans-47" transform="translate(668.171875 0)"/>
     <use xlink:href="#DejaVuSans-3" transform="translate(731.65625 0)"/>
     <use xlink:href="#DejaVuSans-47" transform="translate(763.4375 0)"/>
     <use xlink:href="#DejaVuSans-48" transform="translate(826.921875 0)"/>
     <use xlink:href="#DejaVuSans-59" transform="translate(888.453125 0)"/>
     <use xlink:href="#DejaVuSans-48" transform="translate(947.640625 0)"/>
     <use xlink:href="#DejaVuSans-4f" transform="translate(1009.171875 0)"/>
     <use xlink:href="#DejaVuSans-52" transform="translate(1036.953125 0)"/>
     <use xlink:href="#DejaVuSans-53" transform="translate(1098.140625 0)"/>
     <use xlink:href="#DejaVuSans-50" transform="translate(1161.625 0)"/>
     <use xlink:href="#DejaVuSans-48" transform="translate(1259.03125 0)"/>
     <use xlink:href="#DejaVuSans-51" transform="translate(1320.5625 0)"/>
     <use xlink:href="#DejaVuSans-57" transform="translate(1383.9375 0)"/>
     <use xlink:href="#DejaVuSans-3" transform="translate(1423.140625 0)"/>
     <use xlink:href="#DejaVuSans-56" transform="translate(1454.921875 0)"/>
     <use xlink:href="#DejaVuSans-44" transform="translate(1507.015625 0)"/>
     <use xlink:href="#DejaVuSans-50" transform="translate(1568.296875 0)"/>
     <use xlink:href="#DejaVuSans-53" transform="translate(1665.703125 0)"/>
     <use xlink:href="#DejaVuSans-4f" transform="translate(1729.1875 0)"/>
     <use xlink:href="#DejaVuSans-48" transform="translate(1756.96875 0)"/>
     <use xlink:href="#DejaVuSans-1e" transform="translate(1818.5 0)"/>
     <use xlink:href="#DejaVuSans-3" transform="translate(1852.1875 0)"/>
     <use xlink:href="#DejaVuSans-4c" transform="translate(1883.96875 0)"/>
     <use xlink:href="#DejaVuSans-51" transform="translate(1911.75 0)"/>
     <use xlink:href="#DejaVuSans-57" transform="translate(1975.125 0)"/>
     <use xlink:href="#DejaVuSans-48" transform="translate(2014.328125 0)"/>
     <use xlink:href="#DejaVuSans-55" transform="translate(2075.859375 0)"/>
     <use xlink:href="#DejaVuSans-59" transform="translate(2116.96875 0)"/>
     <use xlink:href="#DejaVuSans-44" transform="translate(2176.15625 0)"/>
     <use xlink:href="#DejaVuSans-4f" transform="translate(2237.4375 0)"/>
     <use xlink:href="#DejaVuSans-56" transform="translate(2265.21875 0)"/>
     <use xlink:href="#DejaVuSans-3" transform="translate(2317.3125 0)"/>
     <use xlink:href="#DejaVuSans-47" transform="translate(2349.09375 0)"/>
     <use xlink:href="#DejaVuSans-48" transform="translate(2412.578125 0)"/>
     <use xlink:href="#DejaVuSans-56" transform="translate(2474.109375 0)"/>
     <use xlink:href="#DejaVuSans-46" transform="translate(2526.203125 0)"/>
     <use xlink:href="#DejaVuSans-55" transform="translate(2581.1875 0)"/>
     <use xlink:href="#DejaVuSans-4c" transform="translate(2622.296875 0)"/>
     <use xlink:href="#DejaVuSans-45" transform="translate(2650.078125 0)"/>
     <use xlink:href="#DejaVuSans-48" transform="translate(2713.5625 0)"/>
     <use xlink:href="#DejaVuSans-3" transform="translate(2775.09375 0)"/>
     <use xlink:href="#DejaVuSans-50" transform="translate(2806.875 0)"/>
     <use xlink:href="#DejaVuSans-52" transform="translate(2904.28125 0)"/>
     <use xlink:href="#DejaVuSans-47" transform="translate(2965.46875 0)"/>
     <use xlink:href="#DejaVuSans-48" transform="translate(3028.953125 0)"/>
     <use xlink:href="#DejaVuSans-4f" transform="translate(3090.484375 0)"/>
     <use xlink:href="#DejaVuSans-3" transform="translate(3118.265625 0)"/>
     <use xlink:href="#DejaVuSans-56" transform="translate(3150.046875 0)"/>
     <use xlink:href="#DejaVuSans-48" transform="translate(3202.140625 0)"/>
     <use xlink:href="#DejaVuSans-51" transform="translate(3263.671875 0)"/>
     <use xlink:href="#DejaVuSans-56" transform="translate(3327.046875 0)"/>
     <use xlink:href="#DejaVuSans-4c" transform="translate(3379.140625 0)"/>
     <use xlink:href="#DejaVuSans-57" transform="translate(3406.921875 0)"/>
     <use xlink:href="#DejaVuSans-4c" transform="translate(3446.125 0)"/>
     <use xlink:href="#DejaVuSans-59" transform="translate(3473.90625 0)"/>
     <use xlink:href="#DejaVuSans-4c" transform="translate(3533.09375 0)"/>
     <use xlink:href="#DejaVuSans-57" transform="translate(3560.875 0)"/>
     <use xlink:href="#DejaVuSans-5c" transform="translate(3600.078125 0)"/>
     <use xlink:href="#DejaVuSans-f" transform="translate(3659.265625 0)"/>
     <use xlink:href="#DejaVuSans-3" transform="translate(3691.046875 0)"/>
     <use xlink:href="#DejaVuSans-51" transform="translate(3722.828125 0)"/>
     <use xlink:href="#DejaVuSans-52" transform="translate(3786.203125 0)"/>
     <use xlink:href="#DejaVuSans-57" transform="translate(3847.390625 0)"/>
     <use xlink:href="#DejaVuSans-3" transform="translate(3886.59375 0)"/>
     <use xlink:href="#DejaVuSans-46" transform="translate(3918.375 0)"/>
     <use xlink:href="#DejaVuSans-4c" transform="translate(3973.359375 0)"/>
     <use xlink:href="#DejaVuSans-57" transform="translate(4001.140625 0)"/>
     <use xlink:href="#DejaVuSans-44" transform="translate(4040.34375 0)"/>
     <use xlink:href="#DejaVuSans-57" transform="translate(4101.625 0)"/>
     <use xlink:href="#DejaVuSans-4c" transform="translate(4140.828125 0)"/>
     <use xlink:href="#DejaVuSans-52" transform="translate(4168.609375 0)"/>
     <use xlink:href="#DejaVuSans-51" transform="translate(4229.796875 0)"/>
     <use xlink:href="#DejaVuSans-3" transform="translate(4293.171875 0)"/>
     <use xlink:href="#DejaVuSans-58" transform="translate(4324.953125 0)"/>
     <use xlink:href="#DejaVuSans-53" transform="translate(4388.328125 0)"/>
     <use xlink:href="#DejaVuSans-4f" transform="translate(4451.8125 0)"/>
     <use xlink:href="#DejaVuSans-4c" transform="translate(4479.59375 0)"/>
     <use xlink:href="#DejaVuSans-49" transform="translate(4507.375 0)"/>
     <use xlink:href="#DejaVuSans-57" transform="translate(4540.828125 0)"/>
     <use xlink:href="#DejaVuSans-11" transform="translate(4580.03125 0)"/>
    </g>
   </g>
   <g id="text_14">
    <!-- Prompt and URL fixed: coherent HTML edits, all features recomputed -->
    <g transform="translate(287.485937 16.318125) scale(0.12 -0.12)">
     <defs>
      <path id="DejaVuSans-33" d="M 1259 4147
L 1259 2394
L 2053 2394
Q 2494 2394 2734 2622
Q 2975 2850 2975 3272
Q 2975 3691 2734 3919
Q 2494 4147 2053 4147
L 1259 4147
z
M 628 4666
L 2053 4666
Q 2838 4666 3239 4311
Q 3641 3956 3641 3272
Q 3641 2581 3239 2228
Q 2838 1875 2053 1875
L 1259 1875
L 1259 0
L 628 0
L 628 4666
z
" transform="scale(0.015625)"/>
      <path id="DejaVuSans-38" d="M 556 4666
L 1191 4666
L 1191 1831
Q 1191 1081 1462 751
Q 1734 422 2344 422
Q 2950 422 3222 751
Q 3494 1081 3494 1831
L 3494 4666
L 4128 4666
L 4128 1753
Q 4128 841 3676 375
Q 3225 -91 2344 -91
Q 1459 -91 1007 375
Q 556 841 556 1753
L 556 4666
z
" transform="scale(0.015625)"/>
      <path id="DejaVuSans-35" d="M 2841 2188
Q 3044 2119 3236 1894
Q 3428 1669 3622 1275
L 4263 0
L 3584 0
L 2988 1197
Q 2756 1666 2539 1819
Q 2322 1972 1947 1972
L 1259 1972
L 1259 0
L 628 0
L 628 4666
L 2053 4666
Q 2853 4666 3247 4331
Q 3641 3997 3641 3322
Q 3641 2881 3436 2590
Q 3231 2300 2841 2188
z
M 1259 4147
L 1259 2491
L 2053 2491
Q 2509 2491 2742 2702
Q 2975 2913 2975 3322
Q 2975 3731 2742 3939
Q 2509 4147 2053 4147
L 1259 4147
z
" transform="scale(0.015625)"/>
      <path id="DejaVuSans-13af" d="M 3431 3500
L 3431 0
L 2853 0
L 2853 3053
L 1275 3053
L 1275 0
L 697 0
L 697 3053
L 147 3053
L 147 3500
L 697 3500
L 697 3744
Q 697 4316 967 4589
Q 1238 4863 1797 4863
L 2375 4863
L 2375 4384
L 1825 4384
Q 1516 4384 1395 4259
Q 1275 4134 1275 3809
L 1275 3500
L 3431 3500
z
M 2853 4856
L 3431 4856
L 3431 4128
L 2853 4128
L 2853 4856
z
" transform="scale(0.015625)"/>
     </defs>
     <use xlink:href="#DejaVuSans-33"/>
     <use xlink:href="#DejaVuSans-55" transform="translate(58.546875 0)"/>
     <use xlink:href="#DejaVuSans-52" transform="translate(97.453125 0)"/>
     <use xlink:href="#DejaVuSans-50" transform="translate(158.640625 0)"/>
     <use xlink:href="#DejaVuSans-53" transform="translate(256.046875 0)"/>
     <use xlink:href="#DejaVuSans-57" transform="translate(319.53125 0)"/>
     <use xlink:href="#DejaVuSans-3" transform="translate(358.734375 0)"/>
     <use xlink:href="#DejaVuSans-44" transform="translate(390.515625 0)"/>
     <use xlink:href="#DejaVuSans-51" transform="translate(451.796875 0)"/>
     <use xlink:href="#DejaVuSans-47" transform="translate(515.171875 0)"/>
     <use xlink:href="#DejaVuSans-3" transform="translate(578.65625 0)"/>
     <use xlink:href="#DejaVuSans-38" transform="translate(610.4375 0)"/>
     <use xlink:href="#DejaVuSans-35" transform="translate(683.625 0)"/>
     <use xlink:href="#DejaVuSans-2f" transform="translate(753.109375 0)"/>
     <use xlink:href="#DejaVuSans-3" transform="translate(808.828125 0)"/>
     <use xlink:href="#DejaVuSans-13af" transform="translate(840.609375 0)"/>
     <use xlink:href="#DejaVuSans-5b" transform="translate(903.59375 0)"/>
     <use xlink:href="#DejaVuSans-48" transform="translate(959.703125 0)"/>
     <use xlink:href="#DejaVuSans-47" transform="translate(1021.234375 0)"/>
     <use xlink:href="#DejaVuSans-1d" transform="translate(1084.71875 0)"/>
     <use xlink:href="#DejaVuSans-3" transform="translate(1118.40625 0)"/>
     <use xlink:href="#DejaVuSans-46" transform="translate(1150.1875 0)"/>
     <use xlink:href="#DejaVuSans-52" transform="translate(1205.171875 0)"/>
     <use xlink:href="#DejaVuSans-4b" transform="translate(1266.359375 0)"/>
     <use xlink:href="#DejaVuSans-48" transform="translate(1329.734375 0)"/>
     <use xlink:href="#DejaVuSans-55" transform="translate(1391.265625 0)"/>
     <use xlink:href="#DejaVuSans-48" transform="translate(1430.171875 0)"/>
     <use xlink:href="#DejaVuSans-51" transform="translate(1491.703125 0)"/>
     <use xlink:href="#DejaVuSans-57" transform="translate(1555.078125 0)"/>
     <use xlink:href="#DejaVuSans-3" transform="translate(1594.28125 0)"/>
     <use xlink:href="#DejaVuSans-2b" transform="translate(1626.0625 0)"/>
     <use xlink:href="#DejaVuSans-37" transform="translate(1701.265625 0)"/>
     <use xlink:href="#DejaVuSans-30" transform="translate(1762.34375 0)"/>
     <use xlink:href="#DejaVuSans-2f" transform="translate(1848.625 0)"/>
     <use xlink:href="#DejaVuSans-3" transform="translate(1904.34375 0)"/>
     <use xlink:href="#DejaVuSans-48" transform="translate(1936.125 0)"/>
     <use xlink:href="#DejaVuSans-47" transform="translate(1997.65625 0)"/>
     <use xlink:href="#DejaVuSans-4c" transform="translate(2061.140625 0)"/>
     <use xlink:href="#DejaVuSans-57" transform="translate(2088.921875 0)"/>
     <use xlink:href="#DejaVuSans-56" transform="translate(2128.125 0)"/>
     <use xlink:href="#DejaVuSans-f" transform="translate(2180.21875 0)"/>
     <use xlink:href="#DejaVuSans-3" transform="translate(2212 0)"/>
     <use xlink:href="#DejaVuSans-44" transform="translate(2243.78125 0)"/>
     <use xlink:href="#DejaVuSans-4f" transform="translate(2305.0625 0)"/>
     <use xlink:href="#DejaVuSans-4f" transform="translate(2332.84375 0)"/>
     <use xlink:href="#DejaVuSans-3" transform="translate(2360.625 0)"/>
     <use xlink:href="#DejaVuSans-49" transform="translate(2392.40625 0)"/>
     <use xlink:href="#DejaVuSans-48" transform="translate(2427.609375 0)"/>
     <use xlink:href="#DejaVuSans-44" transform="translate(2489.140625 0)"/>
     <use xlink:href="#DejaVuSans-57" transform="translate(2550.421875 0)"/>
     <use xlink:href="#DejaVuSans-58" transform="translate(2589.625 0)"/>
     <use xlink:href="#DejaVuSans-55" transform="translate(2653 0)"/>
     <use xlink:href="#DejaVuSans-48" transform="translate(2691.90625 0)"/>
     <use xlink:href="#DejaVuSans-56" transform="translate(2753.4375 0)"/>
     <use xlink:href="#DejaVuSans-3" transform="translate(2805.53125 0)"/>
     <use xlink:href="#DejaVuSans-55" transform="translate(2837.3125 0)"/>
     <use xlink:href="#DejaVuSans-48" transform="translate(2876.21875 0)"/>
     <use xlink:href="#DejaVuSans-46" transform="translate(2937.75 0)"/>
     <use xlink:href="#DejaVuSans-52" transform="translate(2992.734375 0)"/>
     <use xlink:href="#DejaVuSans-50" transform="translate(3053.921875 0)"/>
     <use xlink:href="#DejaVuSans-53" transform="translate(3151.328125 0)"/>
     <use xlink:href="#DejaVuSans-58" transform="translate(3214.8125 0)"/>
     <use xlink:href="#DejaVuSans-57" transform="translate(3278.1875 0)"/>
     <use xlink:href="#DejaVuSans-48" transform="translate(3317.390625 0)"/>
     <use xlink:href="#DejaVuSans-47" transform="translate(3378.921875 0)"/>
    </g>
   </g>
   <g id="PathCollection_4">
    <defs>
     <path id="m94b1bdd0e9" d="M -0 5.700877
L 5.700877 0
L 0 -5.700877
L -5.700877 -0
z
" style="stroke: #b64b47"/>
    </defs>
    <g clip-path="url(#p27cae2c26a)">
     <use xlink:href="#m94b1bdd0e9" x="476.275111" y="253.1265" style="fill: #b64b47; stroke: #b64b47"/>
    </g>
   </g>
   <g id="PathCollection_5">
    <g clip-path="url(#p27cae2c26a)">
     <use xlink:href="#m94b1bdd0e9" x="513.065617" y="145.192293" style="fill: #b64b47; stroke: #b64b47"/>
    </g>
   </g>
   <g id="PathCollection_6">
    <g clip-path="url(#p27cae2c26a)">
     <use xlink:href="#m94b1bdd0e9" x="509.908973" y="37.258086" style="fill: #b64b47; stroke: #b64b47"/>
    </g>
   </g>
  </g>
 </g>
 <defs>
  <clipPath id="p27cae2c26a">
   <rect x="214.457812" y="22.318125" width="559.145" height="250.677012"/>
  </clipPath>
 </defs>
</svg>
